<svg viewBox="0 0 100 100" fill="currentColor" width="100" height="100"
    style="width: 60%; max-width: 100px; min-width: 50px;">
    <g fill="currentColor" clip-path="url(#clip0_334_39824)">
        <path
            d="M96.0938 100H3.90625C2.87025 100 1.87668 99.5885 1.14411 98.8559C0.41155 98.1233 0 97.1298 0 96.0938L0 3.90625C0 2.87025 0.41155 1.87668 1.14411 1.14411C1.87668 0.41155 2.87025 0 3.90625 0L96.0938 0C97.1298 0 98.1233 0.41155 98.8559 1.14411C99.5885 1.87668 100 2.87025 100 3.90625V96.0938C100 97.1298 99.5885 98.1233 98.8559 98.8559C98.1233 99.5885 97.1298 100 96.0938 100ZM3.90625 1.5625C3.28841 1.5745 2.69921 1.82528 2.26225 2.26225C1.82528 2.69921 1.5745 3.28841 1.5625 3.90625V96.0938C1.5745 96.7116 1.82528 97.3008 2.26225 97.7378C2.69921 98.1747 3.28841 98.4255 3.90625 98.4375H96.0938C96.7116 98.4255 97.3008 98.1747 97.7378 97.7378C98.1747 97.3008 98.4255 96.7116 98.4375 96.0938V3.90625C98.4255 3.28841 98.1747 2.69921 97.7378 2.26225C97.3008 1.82528 96.7116 1.5745 96.0938 1.5625H3.90625Z"></path>
        <path
            d="M85.5937 99.5159L30.5 44.1878C30.0451 43.7604 29.4444 43.5225 28.8203 43.5225C28.1962 43.5225 27.5955 43.7604 27.1406 44.1878L1.3125 70.1253L0.21875 69.0315L26.0469 43.1097C26.794 42.3962 27.7873 41.998 28.8203 41.998C29.8534 41.998 30.8467 42.3962 31.5937 43.1097L86.6875 98.4378L85.5937 99.5159Z"></path>
        <path
            d="M98.6719 86.4375L68.0938 55.7344C67.8763 55.5113 67.6163 55.3341 67.3291 55.2133 67.0419 55.0926 66.7334 55.0306 66.4219 55.0313V55.0313C66.108 55.0303 65.797 55.092 65.5073 55.2128 65.2175 55.3335 64.9547 55.5108 64.7344 55.7344L54.25 66.25 53.125 65.1719 63.6406 54.6875C64.3813 53.9559 65.3808 53.546 66.4219 53.5469V53.5469C66.9353 53.5451 67.444 53.645 67.9187 53.8408 68.3934 54.0365 68.8246 54.3243 69.1875 54.6875L99.7656 85.3438 98.6719 86.4375zM73.0469 37.1562C71.0282 37.1593 69.054 36.5636 67.3741 35.4443 65.6941 34.3251 64.3839 32.7326 63.6093 30.8685 62.8346 29.0044 62.6304 26.9524 63.0223 24.9722 63.4142 22.9919 64.3847 21.1725 65.811 19.744 67.2373 18.3155 69.0553 17.3422 71.035 16.9472 73.0146 16.5522 75.0669 16.7534 76.9322 17.5252 78.7975 18.297 80.3919 19.6047 81.5138 21.2829 82.6356 22.9612 83.2344 24.9345 83.2344 26.9531 83.2303 29.6552 82.1561 32.2456 80.2469 34.1577 78.3377 36.0699 75.7489 37.148 73.0469 37.1562V37.1562zM73.0469 18.2969C71.3348 18.2969 69.6612 18.8045 68.2377 19.7557 66.8142 20.7069 65.7047 22.0588 65.0495 23.6405 64.3944 25.2222 64.223 26.9627 64.557 28.6419 64.891 30.321 65.7154 31.8634 66.926 33.074 68.1366 34.2846 69.679 35.109 71.3581 35.443 73.0373 35.777 74.7778 35.6056 76.3595 34.9504 77.9412 34.2953 79.2931 33.1858 80.2443 31.7623 81.1955 30.3388 81.7031 28.6652 81.7031 26.9531 81.699 24.6586 80.7857 22.4593 79.1632 20.8368 77.5407 19.2143 75.3414 18.301 73.0469 18.2969V18.2969z"></path>
    </g>
    <defs>
        <clipPath id="clip0_334_39824">
            <path fill="currentColor" d="M0 0H100V100H0z"></path>
        </clipPath>
    </defs>
</svg>